<svg xmlns="http://www.w3.org/2000/svg" viewBox="0 0 600 260" width="100%" height="100%">
  <defs>
    <linearGradient id="defGrad" x1="0%" y1="0%" x2="100%" y2="100%">
      <stop offset="0%" stop-color="#0f172a"/>
      <stop offset="55%" stop-color="#0369a1"/>
      <stop offset="100%" stop-color="#0284c7"/>
    </linearGradient>
    <filter id="softGlowDef" x="-20%" y="-20%" width="140%" height="140%">
      <feGaussianBlur stdDeviation="12" result="blur"/>
      <feComposite in="SourceGraphic" in2="blur" operator="over"/>
    </filter>
  </defs>
  <rect width="600" height="260" rx="14" fill="url(#defGrad)"/>
  <circle cx="480" cy="120" r="90" fill="#38bdf8" opacity="0.3" filter="url(#softGlowDef)"/>
  <rect x="36" y="32" width="148" height="26" rx="13" fill="rgba(255,255,255,0.16)"/>
  <text x="50" y="49" fill="#bae6fd" font-family="system-ui, -apple-system, sans-serif" font-size="11" font-weight="700" letter-spacing="0.06em">DEFENCE SERVICES</text>
  <text x="36" y="98" fill="#ffffff" font-family="system-ui, -apple-system, sans-serif" font-size="24" font-weight="800">NDA, CDS, AFCAT &amp; CAPF</text>
  <text x="36" y="124" fill="#e0f2fe" font-family="system-ui, -apple-system, sans-serif" font-size="13" font-weight="500">Written Exam Strategy, GAT Capsules &amp; SSB Interview Guidance</text>
  <g transform="translate(36, 160)">
    <rect width="124" height="32" rx="8" fill="rgba(255,255,255,0.12)"/>
    <text x="14" y="21" fill="#ffffff" font-family="system-ui, -apple-system, sans-serif" font-size="12" font-weight="700">Written + SSB</text>
    <rect x="136" width="138" height="32" rx="8" fill="rgba(255,255,255,0.12)"/>
    <text x="150" y="21" fill="#ffffff" font-family="system-ui, -apple-system, sans-serif" font-size="12" font-weight="700">15,000+ Enrolled</text>
  </g>
  <!-- Right Side Graphic: Shield & Wings of Valour -->
  <g transform="translate(425, 50)">
    <circle cx="65" cy="70" r="62" fill="rgba(255,255,255,0.1)" stroke="rgba(255,255,255,0.25)" stroke-width="2"/>
    <!-- Heraldic Shield -->
    <path d="M65 30 L95 44 L95 76 Q95 108 65 120 Q35 108 35 76 L35 44 Z" fill="#ffffff"/>
    <path d="M65 38 L87 48 L87 74 Q87 100 65 110 Q43 100 43 74 L43 48 Z" fill="#0369a1"/>
    <!-- Central Star -->
    <polygon points="65,58 68,67 77,67 70,72 73,81 65,76 57,81 60,72 53,67 62,67" fill="#facc15"/>
    <circle cx="65" cy="71" r="3" fill="#ffffff"/>
  </g>
</svg>
